# xmcd
#
# Track frame offsets:
#	150
#	12925
#	35365
#	47751
#	67270
#	89931
#	102936
#	128443
#	150263
#	162683
#
# Disc length: 2389 seconds
#
# Revision: 1
# Processed by: cddbd v1.4PL0 Copyright (c) Steve Scherf et al.
# Submitted via: audiograbber 1.82.00
#
DISCID=8109530a
DTITLE=Finnegan and Wood - Crazed Hipsters
DYEAR=1971
DGENRE=
TTITLE0=Rock And Roll Show
TTITLE1=Highway
TTITLE2=Laughing Eyes
TTITLE3=Tend To Your Own Business
TTITLE4=Hard Times
TTITLE5=Lady Lady
TTITLE6=Death Letter
TTITLE7=My, My, My,
TTITLE8=Don't Cry No More
TTITLE9=Down In The Flood
EXTD=
EXTT0=
EXTT1=
EXTT2=
EXTT3=
EXTT4=
EXTT5=
EXTT6=
EXTT7=
EXTT8=
EXTT9=
PLAYORDER=
